HIERARCHY
ROOT root
{
	OFFSET	0	13.1	24.9
	CHANNELS 6  Xposition Yposition Zposition Xrotation Yrotation Zrotation
	JOINT spine_1
	{
		OFFSET	0	9.99999	0
		CHANNELS 3  Xrotation Yrotation Zrotation
		JOINT spine_2
		{
			OFFSET	0	112	-10
			CHANNELS 3  Xrotation Yrotation Zrotation
			JOINT spine_3
			{
				OFFSET	0	206.5	19.3
				CHANNELS 3  Xrotation Yrotation Zrotation
				JOINT spine_4
				{
					OFFSET	0	110.4	14.6
					CHANNELS 3  Xrotation Yrotation Zrotation
					JOINT neck_1
					{
						OFFSET	0	71.8	-50.3
						CHANNELS 3  Xrotation Yrotation Zrotation
						JOINT neck_2
						{
							OFFSET	0	86.2	-25.8
							CHANNELS 3  Xrotation Yrotation Zrotation
							JOINT head_ee
							{
								OFFSET	0	179.8	-8.7
								CHANNELS 3  Xrotation Yrotation Zrotation
								End Site
								{
									OFFSET	1	0	0
								}
							}
						}
					}
					JOINT left_clavicle
					{
						OFFSET	-43.2	22.4	-70.8
						CHANNELS 3  Xrotation Yrotation Zrotation
						JOINT left_shoulder
						{
							OFFSET	-93.9	-5.79999	48.7
							CHANNELS 3  Xrotation Yrotation Zrotation
							JOINT left_elbow
							{
								OFFSET	-291.4	-30.8	15.2
								CHANNELS 3  Xrotation Yrotation Zrotation
								JOINT left_lowarm_twist
								{
									OFFSET	-110.7	-3.89999	13.6
									CHANNELS 3  Xrotation Yrotation Zrotation
									JOINT left_hand
									{
										OFFSET	-110.7	-3.89999	13.6
										CHANNELS 3  Xrotation Yrotation Zrotation
										JOINT left_ee
										{
											OFFSET	-80.8	-5.10001	12.1
											CHANNELS 3  Xrotation Yrotation Zrotation
											End Site
											{
												OFFSET	1	0	0
											}
										}
									}
								}
							}
						}
					}
					JOINT right_clavicle
					{
						OFFSET	43.2	22.4	-70.8
						CHANNELS 3  Xrotation Yrotation Zrotation
						JOINT right_shoulder
						{
							OFFSET	93.9	-5.79999	48.7
							CHANNELS 3  Xrotation Yrotation Zrotation
							JOINT right_elbow
							{
								OFFSET	291.4	-30.8	15.2
								CHANNELS 3  Xrotation Yrotation Zrotation
								JOINT right_lowarm_twist
								{
									OFFSET	110.7	-3.89999	13.6
									CHANNELS 3  Xrotation Yrotation Zrotation
									JOINT right_hand
									{
										OFFSET	110.7	-3.89999	13.6
										CHANNELS 3  Xrotation Yrotation Zrotation
										JOINT right_ee
										{
											OFFSET	80.8	-5.10001	12.1
											CHANNELS 3  Xrotation Yrotation Zrotation
											End Site
											{
												OFFSET	1	0	0
											}
										}
									}
								}
							}
						}
					}
				}
			}
		}
	}
	JOINT left_hip
	{
		OFFSET	-82.8	-127.5	0.300001
		CHANNELS 3  Xrotation Yrotation Zrotation
		JOINT left_knee
		{
			OFFSET	-28.2	-396.7	2.2
			CHANNELS 3  Xrotation Yrotation Zrotation
			JOINT left_ankle
			{
				OFFSET	-11.7	-411.3	35.4
				CHANNELS 3  Xrotation Yrotation Zrotation
				JOINT left_toes
				{
					OFFSET	0	-60	-88.6
					CHANNELS 3  Xrotation Yrotation Zrotation
					JOINT left_foot_ee
					{
						OFFSET	-22.5	-16.5	-42.2
						CHANNELS 3  Xrotation Yrotation Zrotation
						End Site
						{
							OFFSET	1	0	0
						}
					}
				}
			}
		}
	}
	JOINT right_hip
	{
		OFFSET	82.8	-127.5	0.300001
		CHANNELS 3  Xrotation Yrotation Zrotation
		JOINT right_knee
		{
			OFFSET	28.2	-396.7	2.2
			CHANNELS 3  Xrotation Yrotation Zrotation
			JOINT right_ankle
			{
				OFFSET	11.7	-411.3	35.4
				CHANNELS 3  Xrotation Yrotation Zrotation
				JOINT right_toes
				{
					OFFSET	0	-60	-88.6
					CHANNELS 3  Xrotation Yrotation Zrotation
					JOINT right_foot_ee
					{
						OFFSET	22.5	-16.5	-42.2
						CHANNELS 3  Xrotation Yrotation Zrotation
						End Site
						{
							OFFSET	1	0	0
						}
					}
				}
			}
		}
	}
}
MOTION
Frames: 12
Frame Time: 0.02
1370.43 661.546 -1457.38 5.70208 75.0708 -3.45351 -0.0137857 -0.0163922 -0.909171 -0.0133267 0.0414915 -0.908372 -0.0137979 0.231714 -0.879303 -0.0148659 0.089943 -0.90486 -11.9828 11.5845 4.80667 -12.1144 18.8979 7.90354 -0.0 0.0 -0.0 7.97964 13.2764 14.9075 28.1704 -14.3731 57.7107 1.16921 -30.0781 0.314154 -50.9529 -4.18386 4.73181 1.19484 -5.26502 5.83363 -0.0 0.0 -0.0 11.284 -18.1792 -19.9151 -12.3307 -14.3252 -52.522 0.184742 5.22902 -0.00843589 -61.4335 5.46155 -5.14357 7.28166 -34.5937 -66.1969 0.0 0.0 0.0 -21.0721 26.1055 -0.177513 -3.01902 0.112477 0.449617 30.0372 -19.6604 -4.31978 -7.0827 0.0 0.0 -0.0 0.0 -0.0 25.9804 13.9303 -9.39979 5.55996 0.268552 0.810383 -18.1008 -1.68161 -2.73961 -24.7333 0.0 0.0 0.0 0.0 0.0 
1343.24 662.639 -1462.04 9.49674 75.4834 -7.31669 -0.0858231 0.0553282 -0.902456 -0.0853769 0.112639 -0.897107 -0.0869861 0.299996 -0.852934 -0.0879654 0.161531 -0.889605 -10.9116 11.5534 4.91823 -10.995 18.601 7.82525 -0.0 0.0 -0.0 7.38919 14.8453 13.781 25.2374 -16.5263 59.8208 1.21939 -31.1329 0.339702 -51.9692 -4.30428 4.78191 1.47327 -9.4294 5.951 -0.0 0.0 -0.0 11.3324 -18.1888 -19.9955 -12.4523 -15.3375 -52.5195 0.181023 5.12432 -0.00810041 -63.3518 5.7023 -5.19324 7.25498 -34.5437 -65.7852 0.0 0.0 0.0 -21.335 24.6371 -0.845321 -8.17372 0.249246 1.2286 31.7381 -19.8247 -4.51733 -6.04738 0.0 0.0 -0.0 0.0 -0.0 23.7723 14.2726 -8.8415 4.41052 0.206588 0.645 -17.9812 -1.43433 -2.72283 -23.9912 0.0 0.0 0.0 0.0 0.0 
1315.38 667.362 -1466.16 15.0674 77.2423 -12.8461 -0.238908 0.0922883 -0.999047 -0.238366 0.15567 -0.991151 -0.240871 0.364482 -0.93476 -0.242028 0.212287 -0.980586 -11.6089 11.1549 4.56953 -11.7186 18.1784 7.49215 -0.0 0.0 -0.0 7.14145 14.7366 13.3726 21.7082 -18.0213 61.6105 1.29576 -32.6942 0.380078 -53.0104 -4.42852 4.83101 2.38701 -14.63 9.85029 -0.0 0.0 -0.0 11.4669 -17.7962 -20.3037 -11.6293 -15.1486 -52.6671 0.186561 5.28023 -0.00860253 -67.8181 6.26793 -5.27734 7.16037 -34.3165 -64.4145 0.0 0.0 0.0 -21.3151 23.8693 -1.69353 -9.18746 0.267864 1.38304 27.4331 -17.8083 -3.95357 -3.54855 0.0 0.0 -0.0 0.0 -0.0 20.994 14.7642 -8.29791 1.57717 0.0681525 0.232415 -11.1192 -4.06817 -1.66553 -20.9307 0.0 0.0 0.0 0.0 0.0 
1300.06 669.453 -1469.73 14.7388 77.6663 -12.6087 -0.227071 0.113669 -0.981845 -0.226552 0.175913 -0.972623 -0.229373 0.380101 -0.9124 -0.23046 0.231241 -0.960974 -17.9721 9.31191 5.21175 -18.1653 15.0932 8.44902 -0.0 0.0 -0.0 6.8613 17.1631 12.751 19.6623 -19.6679 63.3698 1.3707 -34.1749 0.421372 -53.7196 -4.51364 4.86316 2.56327 -17.405 9.74781 -0.0 0.0 -0.0 11.6582 -17.0374 -20.7863 -9.45271 -14.9647 -53.5282 0.207986 5.88258 -0.0106864 -66.5532 6.10715 -5.25803 7.06814 -34.135 -63.1386 0.0 0.0 0.0 -20.838 20.5466 -2.54599 -10.2865 0.284956 1.55081 28.3538 -18.3541 -4.0797 -4.82541 0.0 0.0 -0.0 0.0 -0.0 20.1733 15.2177 -7.83932 2.09086 0.0917308 0.307707 -12.5268 -1.47973 -1.88833 -25.4624 0.0 0.0 0.0 0.0 0.0 
1280.56 675.633 -1474.13 15.4489 78.4267 -13.5066 -0.239689 0.157299 -0.917573 -0.239246 0.215365 -0.905705 -0.242537 0.404502 -0.838493 -0.243418 0.267007 -0.891848 -18.2337 8.88235 5.0811 -18.4106 14.3655 8.19522 -0.0 0.0 -0.0 6.08645 18.6812 11.4348 17.1922 -21.368 65.7842 1.39981 -34.7364 0.43784 -54.3352 -4.58784 4.89021 2.61587 -18.527 9.56702 -0.0 0.0 -0.0 11.9067 -16.9548 -21.2396 -9.32341 -12.5712 -54.7963 0.302626 8.52603 -0.0225582 -70.1716 6.56793 -5.30377 6.78169 -33.7789 -59.4879 0.0 0.0 0.0 -19.9919 19.2925 -3.26387 -11.5695 0.300835 1.74703 27.8609 -18.6356 -4.03066 -2.87157 0.0 0.0 -0.0 0.0 -0.0 20.3965 15.6649 -7.93158 -1.09969 -0.0437156 -0.163097 -8.51603 -4.47361 -1.27033 -28.4661 0.0 0.0 0.0 0.0 0.0 
1251.03 677.554 -1483.65 20.3307 78.7212 -17.6579 -0.182963 0.173393 -0.983071 -0.182456 0.235594 -0.970047 -0.186322 0.437179 -0.89743 -0.187329 0.289967 -0.955206 -18.1083 8.35899 3.10061 -18.3336 14.4101 6.14109 -0.0 0.0 -0.0 5.27607 21.154 10.0966 13.3862 -23.1286 67.2165 1.47308 -36.1167 0.480315 -55.2294 -4.69613 4.92807 2.50598 -16.4704 9.80168 -0.0 0.0 -0.0 11.1076 -16.5506 -19.9163 -8.6805 -9.24448 -58.4224 0.304952 8.59059 -0.0229044 -72.6958 6.8904 -5.3183 6.93 -33.9266 -61.3246 0.0 0.0 0.0 -17.9125 13.0365 -5.69077 -19.9536 0.296189 3.03226 30.0907 -18.4211 -4.28246 -3.39489 0.0 0.0 -0.0 0.0 -0.0 17.3562 16.275 -8.73495 -2.4453 -0.092931 -0.363738 0.860357 -4.93679 0.125871 -32.5413 0.0 0.0 0.0 0.0 0.0 
1228.67 674.19 -1488.51 26.4915 79.5164 -23.7749 -0.205099 0.0394712 -0.926286 -0.204627 0.0983307 -0.921898 -0.206024 0.293087 -0.879586 -0.207073 0.150501 -0.914831 -18.0844 8.20777 2.87558 -18.3072 14.2385 5.86917 -0.0 0.0 -0.0 4.48544 22.7949 8.90745 10.3334 -24.6047 68.2956 1.54703 -37.4623 0.524609 -58.1792 -5.05721 5.04089 2.75155 -16.2521 11.5727 -0.0 0.0 -0.0 11.0638 -15.9498 -19.9461 -7.50032 -8.49862 -58.9473 0.328476 9.24223 -0.0265505 -75.3036 7.22366 -5.31828 6.87808 -34.0281 -60.6094 0.0 0.0 0.0 -17.0779 10.5615 -6.99606 -23.9773 0.227258 3.64572 31.0716 -15.5158 -4.29982 -2.54682 0.0 0.0 -0.0 0.0 -0.0 15.8746 17.0054 -8.97869 -4.09238 -0.14673 -0.610783 8.59559 -8.59593 1.22767 -37.057 0.0 0.0 0.0 0.0 0.0 
1210.23 665.273 -1493.95 31.5877 79.5747 -28.9519 -0.243623 0.0253328 -1.03448 -0.243033 0.0911044 -1.03077 -0.244425 0.309963 -0.987277 -0.245754 0.150159 -1.02383 -19.7377 7.75883 2.24336 -19.992 13.8069 5.32521 -0.0 0.0 -0.0 4.02398 22.7611 8.25605 7.13597 -25.7508 68.2603 1.56014 -37.6958 0.532599 -58.4902 -5.09561 5.0517 2.83205 -16.1128 12.1881 -0.0 0.0 -0.0 11.0825 -14.5108 -20.2242 -6.69138 -6.95032 -59.8827 0.290302 8.18362 -0.0207674 -77.0578 7.44753 -5.30968 6.59366 -33.3504 -57.3961 0.0 0.0 0.0 -16.5607 7.34637 -7.79774 -28.4876 0.0990161 4.32585 33.5929 -15.5907 -4.5706 -2.09038 0.0 0.0 -0.0 0.0 -0.0 14.4736 17.3134 -9.22381 -6.34365 -0.208726 -0.950694 17.0629 -10.9491 2.36479 -40.2875 0.0 0.0 0.0 0.0 0.0 
1194.14 667.078 -1499.92 33.8989 80.7553 -31.2216 -0.00920913 -0.0211459 -0.87271 -0.00878608 0.0344276 -0.872287 -0.00913662 0.217144 -0.84553 -0.0101251 0.0808889 -0.86921 -20.3768 8.15048 1.29733 -20.7129 15.0662 4.71625 -0.0 0.0 -0.0 3.73289 23.3612 7.84643 3.9098 -26.3846 68.1187 1.54678 -37.4578 0.524454 -60.3052 -5.32073 5.11058 2.89111 -15.1023 13.074 -0.0 0.0 -0.0 11.019 -12.9547 -20.3573 -3.4291 -4.8659 -61.441 0.30901 8.70316 -0.0235145 -80.797 7.92286 -5.2683 6.74359 -33.6585 -59.0634 0.0 0.0 0.0 -16.3463 5.76015 -8.79287 -28.4257 0.10114 4.31658 34.1823 -15.4775 -4.62773 -2.09249 0.0 0.0 -0.0 0.0 -0.0 13.4731 17.3759 -9.43801 -6.8847 -0.22163 -1.03272 24.2389 -14.1217 3.26907 -40.2716 0.0 0.0 0.0 0.0 0.0 
1171.46 669.222 -1501.05 40.4157 80.933 -37.8149 0.139872 -0.173071 -0.835332 0.140253 -0.119568 -0.844651 0.142223 0.0585156 -0.851062 0.14122 -0.0766232 -0.849624 -21.0339 8.60822 1.18397 -21.4377 16.0242 4.91958 -0.0 0.0 -0.0 4.0596 23.7031 8.29783 0.239992 -26.9726 67.2258 1.31133 -33.006 0.388524 -62.4134 -5.58433 5.16995 2.92043 -13.2848 14.1337 -0.0 0.0 -0.0 10.7598 -12.5081 -19.9479 -2.12872 -2.58357 -62.4429 0.331387 9.3227 -0.0270201 -84.6491 8.40803 -5.19307 6.66748 -32.8499 -58.3959 0.0 0.0 0.0 -15.7436 4.63403 -8.89091 -30.548 0.0226876 4.63282 33.9993 -15.2155 -4.60096 -2.02797 0.0 0.0 -0.0 0.0 -0.0 10.8163 17.6938 -9.14147 -7.13009 -0.227227 -1.06996 27.6086 -18.2027 3.70513 -40.2353 0.0 0.0 0.0 0.0 0.0 
1152.46 671.018 -1503.89 45.7855 81.4478 -43.6088 0.0518096 -0.249288 -0.810525 0.0521535 -0.197208 -0.824744 0.0552254 -0.0202879 -0.847749 0.0542554 -0.153915 -0.833908 -21.8806 8.5782 0.299702 -22.3381 16.4055 4.22509 -0.0 0.0 -0.0 4.17195 24.5509 8.44098 -3.39949 -27.0646 66.4395 1.21284 -30.9964 0.33632 -63.3976 -5.70806 5.19432 2.95431 -12.5527 14.7106 -0.0 0.0 -0.0 10.6633 -10.8286 -19.9999 -0.375906 -0.833188 -63.2848 0.338617 9.52239 -0.0282036 -86.0899 8.58788 -5.15649 6.76266 -32.4621 -59.6659 0.0 0.0 0.0 -15.2286 3.71918 -8.78991 -31.6794 -0.0239163 4.8002 35.3897 -15.8715 -4.76192 -1.86798 0.0 0.0 -0.0 0.0 -0.0 9.49092 17.8754 -9.04995 -8.31031 -0.251914 -1.24939 34.4008 -20.7564 4.49424 -40.1611 0.0 0.0 0.0 0.0 0.0 
1136.81 680.576 -1509.73 41.0619 81.2534 -39.3156 0.121063 0.248003 -0.639122 0.121244 0.288169 -0.622047 0.118099 0.411359 -0.548424 0.117822 0.319585 -0.606506 -21.3689 8.73431 0.0865987 -21.8328 16.8043 4.02351 -0.0 0.0 -0.0 3.74014 25.0726 7.85302 -7.90966 -26.9153 65.3611 1.17136 -30.1237 0.31523 -65.3382 -5.9531 5.23612 2.67355 -11.3743 13.3065 -0.0 0.0 -0.0 11.1365 -10.3418 -20.9596 1.20198 0.765649 -63.5733 0.363542 10.2091 -0.0324743 -85.4804 8.51192 -5.17252 6.48943 -32.1813 -56.515 0.0 0.0 0.0 -9.57117 2.76722 -10.097 -38.5781 -0.378792 5.7982 35.9144 -15.1697 -4.79141 -1.74336 0.0 0.0 -0.0 0.0 -0.0 6.43022 20.1506 -8.70919 -3.65838 -0.133244 -0.545542 31.0678 -23.3024 4.18908 -39.9984 0.0 0.0 0.0 0.0 0.0 
